<svg xmlns="http://www.w3.org/2000/svg" width="1400" height="760" viewBox="0 0 1400 760">
<defs>
  <radialGradient id="bg" cx="70%" cy="45%" r="75%">
    <stop offset="0" stop-color="#111116"/><stop offset=".7" stop-color="#07070a"/><stop offset="1" stop-color="#030305"/>
  </radialGradient>
  <radialGradient id="globe" cx="35%" cy="25%" r="80%">
    <stop offset="0" stop-color="#17171d"/><stop offset=".7" stop-color="#08080c"/><stop offset="1" stop-color="#030305"/>
  </radialGradient>
  <filter id="glow"><feGaussianBlur stdDeviation="7" result="b"/>
    <feMerge><feMergeNode in="b"/><feMergeNode in="SourceGraphic"/></feMerge></filter>
  <clipPath id="globeClip"><circle cx="1050" cy="380" r="260"/></clipPath>
  <pattern id="grid" width="56" height="56" patternUnits="userSpaceOnUse">
    <path d="M56 0H0V56" fill="none" stroke="#2a2a31" stroke-width="1"/>
  </pattern>
</defs>
<rect width="100%" height="100%" fill="url(#bg)"/>
<rect width="100%" height="100%" fill="url(#grid)" opacity=".32"/>
<g font-family="Inter,Arial,sans-serif">
  <circle cx="52" cy="106" r="5" fill="#ef4444"/>
  <text x="74" y="112" fill="#ef4444" font-size="17" font-weight="700" letter-spacing="4">COMPETITION &amp; JUDGING INFRASTRUCTURE</text>
  <text x="72" y="250" fill="#fff" font-size="105" font-weight="900" letter-spacing="-5">RUN.</text>
  <text x="72" y="355" fill="#fff" font-size="105" font-weight="900" letter-spacing="-5">JUDGE.</text>
  <text x="72" y="460" fill="#ef4444" font-size="105" font-weight="900" letter-spacing="-5">SHIP.</text>
  <text x="74" y="525" fill="#a1a1aa" font-size="22">
    <tspan x="74">Deterministic infrastructure for high-stakes hackathons.</tspan>
    <tspan x="74" dy="34">Double-blind evaluation, consensus scoring,</tspan>
    <tspan x="74" dy="34">and cryptographic competition records.</tspan>
  </text>
  <rect x="74" y="650" width="220" height="54" rx="8" fill="#fff"/>
  <text x="184" y="684" text-anchor="middle" fill="#09090b" font-size="17" font-weight="800">EXPLORE HACKATHONS →</text>
</g>
<g>
  <circle cx="1050" cy="380" r="270" fill="none" stroke="#ef4444" stroke-width="2" opacity=".55"/>
  <circle cx="1050" cy="380" r="260" fill="url(#globe)" stroke="#ef4444" stroke-width="2.2"/>
  <g clip-path="url(#globeClip)">
    <g>
      <circle cx="1050.0" cy="631.1" r="2.1" fill="#d4d4d8" opacity="0.90"/><circle cx="1061.7" cy="631.1" r="2.1" fill="#d4d4d8" opacity="0.89"/><circle cx="1073.0" cy="631.1" r="2.1" fill="#d4d4d8" opacity="0.87"/><circle cx="1083.6" cy="631.1" r="2.1" fill="#d4d4d8" opacity="0.83"/><circle cx="1093.3" cy="631.1" r="2.1" fill="#d4d4d8" opacity="0.77"/><circle cx="1101.5" cy="631.1" r="2.1" fill="#d4d4d8" opacity="0.70"/><circle cx="1108.3" cy="631.1" r="2.1" fill="#d4d4d8" opacity="0.62"/><circle cx="1113.2" cy="631.1" r="2.1" fill="#d4d4d8" opacity="0.54"/><circle cx="1116.3" cy="631.1" r="2.1" fill="#d4d4d8" opacity="0.45"/><circle cx="1117.3" cy="631.1" r="2.1" fill="#d4d4d8" opacity="0.35"/><circle cx="1116.3" cy="631.1" r="2.1" fill="#d4d4d8" opacity="0.35"/><circle cx="1113.2" cy="631.1" r="2.1" fill="#d4d4d8" opacity="0.35"/><circle cx="1108.3" cy="631.1" r="2.1" fill="#d4d4d8" opacity="0.35"/><circle cx="1093.3" cy="631.1" r="2.1" fill="#d4d4d8" opacity="0.35"/><circle cx="1083.6" cy="631.1" r="2.1" fill="#d4d4d8" opacity="0.35"/><circle cx="1073.0" cy="631.1" r="2.1" fill="#d4d4d8" opacity="0.35"/><circle cx="1050.0" cy="631.1" r="2.1" fill="#d4d4d8" opacity="0.35"/><circle cx="1038.3" cy="631.1" r="2.1" fill="#d4d4d8" opacity="0.35"/><circle cx="1016.4" cy="631.1" r="2.1" fill="#d4d4d8" opacity="0.35"/><circle cx="998.5" cy="631.1" r="2.1" fill="#d4d4d8" opacity="0.35"/><circle cx="991.7" cy="631.1" r="2.1" fill="#d4d4d8" opacity="0.35"/><circle cx="986.8" cy="631.1" r="2.1" fill="#d4d4d8" opacity="0.35"/><circle cx="983.7" cy="631.1" r="2.1" fill="#d4d4d8" opacity="0.35"/><circle cx="983.7" cy="631.1" r="2.1" fill="#d4d4d8" opacity="0.45"/><circle cx="986.8" cy="631.1" r="2.1" fill="#d4d4d8" opacity="0.54"/><circle cx="991.7" cy="631.1" r="2.1" fill="#d4d4d8" opacity="0.62"/><circle cx="998.5" cy="631.1" r="2.1" fill="#d4d4d8" opacity="0.70"/><circle cx="1006.7" cy="631.1" r="2.1" fill="#d4d4d8" opacity="0.77"/><circle cx="1016.4" cy="631.1" r="2.1" fill="#d4d4d8" opacity="0.83"/><circle cx="1027.0" cy="631.1" r="2.1" fill="#d4d4d8" opacity="0.87"/><circle cx="1038.3" cy="631.1" r="2.1" fill="#d4d4d8" opacity="0.89"/><circle cx="1050.0" cy="615.6" r="2.1" fill="#d4d4d8" opacity="0.90"/><circle cx="1069.1" cy="615.6" r="2.1" fill="#d4d4d8" opacity="0.89"/><circle cx="1087.6" cy="615.6" r="2.1" fill="#d4d4d8" opacity="0.87"/><circle cx="1104.9" cy="615.6" r="2.1" fill="#d4d4d8" opacity="0.83"/><circle cx="1120.6" cy="615.6" r="2.1" fill="#d4d4d8" opacity="0.77"/><circle cx="1134.2" cy="615.6" r="2.1" fill="#d4d4d8" opacity="0.70"/><circle cx="1153.3" cy="615.6" r="2.1" fill="#d4d4d8" opacity="0.54"/><circle cx="1158.2" cy="615.6" r="2.1" fill="#d4d4d8" opacity="0.45"/><circle cx="1159.9" cy="615.6" r="2.1" fill="#d4d4d8" opacity="0.35"/><circle cx="1158.2" cy="615.6" r="2.1" fill="#d4d4d8" opacity="0.35"/><circle cx="1145.2" cy="615.6" r="2.1" fill="#d4d4d8" opacity="0.35"/><circle cx="1134.2" cy="615.6" r="2.1" fill="#d4d4d8" opacity="0.35"/><circle cx="1104.9" cy="615.6" r="2.1" fill="#d4d4d8" opacity="0.35"/><circle cx="1087.6" cy="615.6" r="2.1" fill="#d4d4d8" opacity="0.35"/><circle cx="1069.1" cy="615.6" r="2.1" fill="#d4d4d8" opacity="0.35"/><circle cx="1050.0" cy="615.6" r="2.1" fill="#d4d4d8" opacity="0.35"/><circle cx="1030.9" cy="615.6" r="2.1" fill="#d4d4d8" opacity="0.35"/><circle cx="1012.4" cy="615.6" r="2.1" fill="#d4d4d8" opacity="0.35"/><circle cx="995.1" cy="615.6" r="2.1" fill="#d4d4d8" opacity="0.35"/><circle cx="979.4" cy="615.6" r="2.1" fill="#d4d4d8" opacity="0.35"/><circle cx="965.8" cy="615.6" r="2.1" fill="#d4d4d8" opacity="0.35"/><circle cx="946.7" cy="615.6" r="2.1" fill="#d4d4d8" opacity="0.35"/><circle cx="941.8" cy="615.6" r="2.1" fill="#d4d4d8" opacity="0.35"/><circle cx="940.1" cy="615.6" r="2.1" fill="#d4d4d8" opacity="0.35"/><circle cx="941.8" cy="615.6" r="2.1" fill="#d4d4d8" opacity="0.45"/><circle cx="946.7" cy="615.6" r="2.1" fill="#d4d4d8" opacity="0.54"/><circle cx="979.4" cy="615.6" r="2.1" fill="#d4d4d8" opacity="0.77"/><circle cx="995.1" cy="615.6" r="2.1" fill="#d4d4d8" opacity="0.83"/><circle cx="1012.4" cy="615.6" r="2.1" fill="#d4d4d8" opacity="0.87"/><circle cx="1030.9" cy="615.6" r="2.1" fill="#d4d4d8" opacity="0.89"/><circle cx="1050.0" cy="593.0" r="2.1" fill="#d4d4d8" opacity="0.90"/><circle cx="1124.6" cy="593.0" r="2.1" fill="#d4d4d8" opacity="0.83"/><circle cx="1145.9" cy="593.0" r="2.1" fill="#d4d4d8" opacity="0.77"/><circle cx="1164.2" cy="593.0" r="2.1" fill="#d4d4d8" opacity="0.70"/><circle cx="1179.2" cy="593.0" r="2.1" fill="#d4d4d8" opacity="0.62"/><circle cx="1190.1" cy="593.0" r="2.1" fill="#d4d4d8" opacity="0.54"/><circle cx="1196.9" cy="593.0" r="2.1" fill="#d4d4d8" opacity="0.45"/><circle cx="1199.1" cy="593.0" r="2.1" fill="#d4d4d8" opacity="0.35"/><circle cx="1196.9" cy="593.0" r="2.1" fill="#d4d4d8" opacity="0.35"/><circle cx="1190.1" cy="593.0" r="2.1" fill="#d4d4d8" opacity="0.35"/><circle cx="1179.2" cy="593.0" r="2.1" fill="#d4d4d8" opacity="0.35"/><circle cx="1164.2" cy="593.0" r="2.1" fill="#d4d4d8" opacity="0.35"/><circle cx="1145.9" cy="593.0" r="2.1" fill="#d4d4d8" opacity="0.35"/><circle cx="1101.0" cy="593.0" r="2.1" fill="#d4d4d8" opacity="0.35"/><circle cx="1075.9" cy="593.0" r="2.1" fill="#d4d4d8" opacity="0.35"/><circle cx="1050.0" cy="593.0" r="2.1" fill="#d4d4d8" opacity="0.35"/><circle cx="954.1" cy="593.0" r="2.1" fill="#d4d4d8" opacity="0.35"/><circle cx="935.8" cy="593.0" r="2.1" fill="#d4d4d8" opacity="0.35"/><circle cx="920.8" cy="593.0" r="2.1" fill="#d4d4d8" opacity="0.35"/><circle cx="900.9" cy="593.0" r="2.1" fill="#d4d4d8" opacity="0.35"/><circle cx="903.1" cy="593.0" r="2.1" fill="#d4d4d8" opacity="0.45"/><circle cx="909.9" cy="593.0" r="2.1" fill="#d4d4d8" opacity="0.54"/><circle cx="920.8" cy="593.0" r="2.1" fill="#d4d4d8" opacity="0.62"/><circle cx="935.8" cy="593.0" r="2.1" fill="#d4d4d8" opacity="0.70"/><circle cx="954.1" cy="593.0" r="2.1" fill="#d4d4d8" opacity="0.77"/><circle cx="975.4" cy="593.0" r="2.1" fill="#d4d4d8" opacity="0.83"/><circle cx="999.0" cy="593.0" r="2.1" fill="#d4d4d8" opacity="0.87"/><circle cx="1024.1" cy="593.0" r="2.1" fill="#d4d4d8" opacity="0.89"/><circle cx="1050.0" cy="563.8" r="2.1" fill="#d4d4d8" opacity="0.90"/><circle cx="1081.9" cy="563.8" r="2.1" fill="#d4d4d8" opacity="0.89"/><circle cx="1141.9" cy="563.8" r="2.1" fill="#d4d4d8" opacity="0.83"/><circle cx="1168.2" cy="563.8" r="2.1" fill="#d4d4d8" opacity="0.77"/><circle cx="1190.8" cy="563.8" r="2.1" fill="#d4d4d8" opacity="0.70"/><circle cx="1209.2" cy="563.8" r="2.1" fill="#d4d4d8" opacity="0.62"/><circle cx="1222.8" cy="563.8" r="2.1" fill="#d4d4d8" opacity="0.54"/><circle cx="1233.8" cy="563.8" r="2.1" fill="#d4d4d8" opacity="0.35"/><circle cx="1209.2" cy="563.8" r="2.1" fill="#d4d4d8" opacity="0.35"/><circle cx="1190.8" cy="563.8" r="2.1" fill="#d4d4d8" opacity="0.35"/><circle cx="1168.2" cy="563.8" r="2.1" fill="#d4d4d8" opacity="0.35"/><circle cx="1141.9" cy="563.8" r="2.1" fill="#d4d4d8" opacity="0.35"/><circle cx="1112.9" cy="563.8" r="2.1" fill="#d4d4d8" opacity="0.35"/><circle cx="1081.9" cy="563.8" r="2.1" fill="#d4d4d8" opacity="0.35"/><circle cx="1050.0" cy="563.8" r="2.1" fill="#d4d4d8" opacity="0.35"/><circle cx="1018.1" cy="563.8" r="2.1" fill="#d4d4d8" opacity="0.35"/><circle cx="987.1" cy="563.8" r="2.1" fill="#d4d4d8" opacity="0.35"/><circle cx="958.1" cy="563.8" r="2.1" fill="#d4d4d8" opacity="0.35"/><circle cx="931.8" cy="563.8" r="2.1" fill="#d4d4d8" opacity="0.35"/><circle cx="909.2" cy="563.8" r="2.1" fill="#d4d4d8" opacity="0.35"/><circle cx="890.8" cy="563.8" r="2.1" fill="#d4d4d8" opacity="0.35"/><circle cx="877.2" cy="563.8" r="2.1" fill="#d4d4d8" opacity="0.35"/><circle cx="868.9" cy="563.8" r="2.1" fill="#d4d4d8" opacity="0.35"/><circle cx="868.9" cy="563.8" r="2.1" fill="#d4d4d8" opacity="0.45"/><circle cx="877.2" cy="563.8" r="2.1" fill="#d4d4d8" opacity="0.54"/><circle cx="890.8" cy="563.8" r="2.1" fill="#d4d4d8" opacity="0.62"/><circle cx="909.2" cy="563.8" r="2.1" fill="#d4d4d8" opacity="0.70"/><circle cx="931.8" cy="563.8" r="2.1" fill="#d4d4d8" opacity="0.77"/><circle cx="958.1" cy="563.8" r="2.1" fill="#d4d4d8" opacity="0.83"/><circle cx="1050.0" cy="529.1" r="2.1" fill="#d4d4d8" opacity="0.90"/><circle cx="1087.0" cy="529.1" r="2.1" fill="#d4d4d8" opacity="0.89"/><circle cx="1122.8" cy="529.1" r="2.1" fill="#d4d4d8" opacity="0.87"/><circle cx="1156.5" cy="529.1" r="2.1" fill="#d4d4d8" opacity="0.83"/><circle cx="1186.9" cy="529.1" r="2.1" fill="#d4d4d8" opacity="0.77"/><circle cx="1213.2" cy="529.1" r="2.1" fill="#d4d4d8" opacity="0.70"/><circle cx="1250.1" cy="529.1" r="2.1" fill="#d4d4d8" opacity="0.54"/><circle cx="1259.7" cy="529.1" r="2.1" fill="#d4d4d8" opacity="0.45"/><circle cx="1259.7" cy="529.1" r="2.1" fill="#d4d4d8" opacity="0.35"/><circle cx="1250.1" cy="529.1" r="2.1" fill="#d4d4d8" opacity="0.35"/><circle cx="1234.4" cy="529.1" r="2.1" fill="#d4d4d8" opacity="0.35"/><circle cx="1213.2" cy="529.1" r="2.1" fill="#d4d4d8" opacity="0.35"/><circle cx="1186.9" cy="529.1" r="2.1" fill="#d4d4d8" opacity="0.35"/><circle cx="1087.0" cy="529.1" r="2.1" fill="#d4d4d8" opacity="0.35"/><circle cx="1050.0" cy="529.1" r="2.1" fill="#d4d4d8" opacity="0.35"/><circle cx="1013.0" cy="529.1" r="2.1" fill="#d4d4d8" opacity="0.35"/><circle cx="977.2" cy="529.1" r="2.1" fill="#d4d4d8" opacity="0.35"/><circle cx="943.5" cy="529.1" r="2.1" fill="#d4d4d8" opacity="0.35"/><circle cx="913.1" cy="529.1" r="2.1" fill="#d4d4d8" opacity="0.35"/><circle cx="886.8" cy="529.1" r="2.1" fill="#d4d4d8" opacity="0.35"/><circle cx="865.6" cy="529.1" r="2.1" fill="#d4d4d8" opacity="0.35"/><circle cx="849.9" cy="529.1" r="2.1" fill="#d4d4d8" opacity="0.35"/><circle cx="886.8" cy="529.1" r="2.1" fill="#d4d4d8" opacity="0.70"/><circle cx="913.1" cy="529.1" r="2.1" fill="#d4d4d8" opacity="0.77"/><circle cx="943.5" cy="529.1" r="2.1" fill="#d4d4d8" opacity="0.83"/><circle cx="977.2" cy="529.1" r="2.1" fill="#d4d4d8" opacity="0.87"/><circle cx="1013.0" cy="529.1" r="2.1" fill="#d4d4d8" opacity="0.89"/><circle cx="1050.0" cy="489.9" r="2.1" fill="#d4d4d8" opacity="0.90"/><circle cx="1090.9" cy="489.9" r="2.1" fill="#d4d4d8" opacity="0.89"/><circle cx="1130.6" cy="489.9" r="2.1" fill="#d4d4d8" opacity="0.87"/><circle cx="1167.8" cy="489.9" r="2.1" fill="#d4d4d8" opacity="0.83"/><circle cx="1230.5" cy="489.9" r="2.1" fill="#d4d4d8" opacity="0.70"/><circle cx="1285.6" cy="489.9" r="2.1" fill="#d4d4d8" opacity="0.35"/><circle cx="1282.1" cy="489.9" r="2.1" fill="#d4d4d8" opacity="0.35"/><circle cx="1271.4" cy="489.9" r="2.1" fill="#d4d4d8" opacity="0.35"/><circle cx="1254.1" cy="489.9" r="2.1" fill="#d4d4d8" opacity="0.35"/><circle cx="1230.5" cy="489.9" r="2.1" fill="#d4d4d8" opacity="0.35"/><circle cx="1201.5" cy="489.9" r="2.1" fill="#d4d4d8" opacity="0.35"/><circle cx="1090.9" cy="489.9" r="2.1" fill="#d4d4d8" opacity="0.35"/><circle cx="1050.0" cy="489.9" r="2.1" fill="#d4d4d8" opacity="0.35"/><circle cx="969.4" cy="489.9" r="2.1" fill="#d4d4d8" opacity="0.35"/><circle cx="932.2" cy="489.9" r="2.1" fill="#d4d4d8" opacity="0.35"/><circle cx="845.9" cy="489.9" r="2.1" fill="#d4d4d8" opacity="0.35"/><circle cx="828.6" cy="489.9" r="2.1" fill="#d4d4d8" opacity="0.35"/><circle cx="817.9" cy="489.9" r="2.1" fill="#d4d4d8" opacity="0.35"/><circle cx="817.9" cy="489.9" r="2.1" fill="#d4d4d8" opacity="0.45"/><circle cx="869.5" cy="489.9" r="2.1" fill="#d4d4d8" opacity="0.70"/><circle cx="898.5" cy="489.9" r="2.1" fill="#d4d4d8" opacity="0.77"/><circle cx="969.4" cy="489.9" r="2.1" fill="#d4d4d8" opacity="0.87"/><circle cx="1009.1" cy="489.9" r="2.1" fill="#d4d4d8" opacity="0.89"/><circle cx="1050.0" cy="447.3" r="2.1" fill="#d4d4d8" opacity="0.90"/><circle cx="1093.6" cy="447.3" r="2.1" fill="#d4d4d8" opacity="0.89"/><circle cx="1211.4" cy="447.3" r="2.1" fill="#d4d4d8" opacity="0.77"/><circle cx="1286.0" cy="447.3" r="2.1" fill="#d4d4d8" opacity="0.54"/><circle cx="1297.3" cy="447.3" r="2.1" fill="#d4d4d8" opacity="0.45"/><circle cx="1301.1" cy="447.3" r="2.1" fill="#d4d4d8" opacity="0.35"/><circle cx="1297.3" cy="447.3" r="2.1" fill="#d4d4d8" opacity="0.35"/><circle cx="1286.0" cy="447.3" r="2.1" fill="#d4d4d8" opacity="0.35"/><circle cx="1242.4" cy="447.3" r="2.1" fill="#d4d4d8" opacity="0.35"/><circle cx="1211.4" cy="447.3" r="2.1" fill="#d4d4d8" opacity="0.35"/><circle cx="1135.9" cy="447.3" r="2.1" fill="#d4d4d8" opacity="0.35"/><circle cx="1006.4" cy="447.3" r="2.1" fill="#d4d4d8" opacity="0.35"/><circle cx="964.1" cy="447.3" r="2.1" fill="#d4d4d8" opacity="0.35"/><circle cx="924.4" cy="447.3" r="2.1" fill="#d4d4d8" opacity="0.35"/><circle cx="888.6" cy="447.3" r="2.1" fill="#d4d4d8" opacity="0.35"/><circle cx="857.6" cy="447.3" r="2.1" fill="#d4d4d8" opacity="0.35"/><circle cx="832.5" cy="447.3" r="2.1" fill="#d4d4d8" opacity="0.35"/><circle cx="814.0" cy="447.3" r="2.1" fill="#d4d4d8" opacity="0.35"/><circle cx="802.7" cy="447.3" r="2.1" fill="#d4d4d8" opacity="0.35"/><circle cx="802.7" cy="447.3" r="2.1" fill="#d4d4d8" opacity="0.45"/><circle cx="814.0" cy="447.3" r="2.1" fill="#d4d4d8" opacity="0.54"/><circle cx="832.5" cy="447.3" r="2.1" fill="#d4d4d8" opacity="0.62"/><circle cx="888.6" cy="447.3" r="2.1" fill="#d4d4d8" opacity="0.77"/><circle cx="964.1" cy="447.3" r="2.1" fill="#d4d4d8" opacity="0.87"/><circle cx="1006.4" cy="447.3" r="2.1" fill="#d4d4d8" opacity="0.89"/><circle cx="1050.0" cy="402.7" r="2.1" fill="#d4d4d8" opacity="0.90"/><circle cx="1095.0" cy="402.7" r="2.1" fill="#d4d4d8" opacity="0.89"/><circle cx="1138.6" cy="402.7" r="2.1" fill="#d4d4d8" opacity="0.87"/><circle cx="1179.5" cy="402.7" r="2.1" fill="#d4d4d8" opacity="0.83"/><circle cx="1216.5" cy="402.7" r="2.1" fill="#d4d4d8" opacity="0.77"/><circle cx="1274.3" cy="402.7" r="2.1" fill="#d4d4d8" opacity="0.62"/><circle cx="1293.4" cy="402.7" r="2.1" fill="#d4d4d8" opacity="0.54"/><circle cx="1305.1" cy="402.7" r="2.1" fill="#d4d4d8" opacity="0.45"/><circle cx="1309.0" cy="402.7" r="2.1" fill="#d4d4d8" opacity="0.35"/><circle cx="1305.1" cy="402.7" r="2.1" fill="#d4d4d8" opacity="0.35"/><circle cx="1293.4" cy="402.7" r="2.1" fill="#d4d4d8" opacity="0.35"/><circle cx="1274.3" cy="402.7" r="2.1" fill="#d4d4d8" opacity="0.35"/><circle cx="1216.5" cy="402.7" r="2.1" fill="#d4d4d8" opacity="0.35"/><circle cx="1179.5" cy="402.7" r="2.1" fill="#d4d4d8" opacity="0.35"/><circle cx="1138.6" cy="402.7" r="2.1" fill="#d4d4d8" opacity="0.35"/><circle cx="1095.0" cy="402.7" r="2.1" fill="#d4d4d8" opacity="0.35"/><circle cx="1050.0" cy="402.7" r="2.1" fill="#d4d4d8" opacity="0.35"/><circle cx="1005.0" cy="402.7" r="2.1" fill="#d4d4d8" opacity="0.35"/><circle cx="961.4" cy="402.7" r="2.1" fill="#d4d4d8" opacity="0.35"/><circle cx="920.5" cy="402.7" r="2.1" fill="#d4d4d8" opacity="0.35"/><circle cx="851.6" cy="402.7" r="2.1" fill="#d4d4d8" opacity="0.35"/><circle cx="825.7" cy="402.7" r="2.1" fill="#d4d4d8" opacity="0.35"/><circle cx="806.6" cy="402.7" r="2.1" fill="#d4d4d8" opacity="0.35"/><circle cx="794.9" cy="402.7" r="2.1" fill="#d4d4d8" opacity="0.35"/><circle cx="791.0" cy="402.7" r="2.1" fill="#d4d4d8" opacity="0.35"/><circle cx="794.9" cy="402.7" r="2.1" fill="#d4d4d8" opacity="0.45"/><circle cx="806.6" cy="402.7" r="2.1" fill="#d4d4d8" opacity="0.54"/><circle cx="825.7" cy="402.7" r="2.1" fill="#d4d4d8" opacity="0.62"/><circle cx="883.5" cy="402.7" r="2.1" fill="#d4d4d8" opacity="0.77"/><circle cx="1005.0" cy="402.7" r="2.1" fill="#d4d4d8" opacity="0.89"/><circle cx="1050.0" cy="357.3" r="2.1" fill="#d4d4d8" opacity="0.90"/><circle cx="1179.5" cy="357.3" r="2.1" fill="#d4d4d8" opacity="0.83"/><circle cx="1216.5" cy="357.3" r="2.1" fill="#d4d4d8" opacity="0.77"/><circle cx="1248.4" cy="357.3" r="2.1" fill="#d4d4d8" opacity="0.70"/><circle cx="1274.3" cy="357.3" r="2.1" fill="#d4d4d8" opacity="0.62"/><circle cx="1293.4" cy="357.3" r="2.1" fill="#d4d4d8" opacity="0.54"/><circle cx="1305.1" cy="357.3" r="2.1" fill="#d4d4d8" opacity="0.45"/><circle cx="1309.0" cy="357.3" r="2.1" fill="#d4d4d8" opacity="0.35"/><circle cx="1274.3" cy="357.3" r="2.1" fill="#d4d4d8" opacity="0.35"/><circle cx="1248.4" cy="357.3" r="2.1" fill="#d4d4d8" opacity="0.35"/><circle cx="1216.5" cy="357.3" r="2.1" fill="#d4d4d8" opacity="0.35"/><circle cx="1179.5" cy="357.3" r="2.1" fill="#d4d4d8" opacity="0.35"/><circle cx="1050.0" cy="357.3" r="2.1" fill="#d4d4d8" opacity="0.35"/><circle cx="961.4" cy="357.3" r="2.1" fill="#d4d4d8" opacity="0.35"/><circle cx="920.5" cy="357.3" r="2.1" fill="#d4d4d8" opacity="0.35"/><circle cx="825.7" cy="357.3" r="2.1" fill="#d4d4d8" opacity="0.35"/><circle cx="806.6" cy="357.3" r="2.1" fill="#d4d4d8" opacity="0.35"/><circle cx="794.9" cy="357.3" r="2.1" fill="#d4d4d8" opacity="0.35"/><circle cx="791.0" cy="357.3" r="2.1" fill="#d4d4d8" opacity="0.35"/><circle cx="794.9" cy="357.3" r="2.1" fill="#d4d4d8" opacity="0.45"/><circle cx="806.6" cy="357.3" r="2.1" fill="#d4d4d8" opacity="0.54"/><circle cx="825.7" cy="357.3" r="2.1" fill="#d4d4d8" opacity="0.62"/><circle cx="851.6" cy="357.3" r="2.1" fill="#d4d4d8" opacity="0.70"/><circle cx="883.5" cy="357.3" r="2.1" fill="#d4d4d8" opacity="0.77"/><circle cx="920.5" cy="357.3" r="2.1" fill="#d4d4d8" opacity="0.83"/><circle cx="961.4" cy="357.3" r="2.1" fill="#d4d4d8" opacity="0.87"/><circle cx="1005.0" cy="357.3" r="2.1" fill="#d4d4d8" opacity="0.89"/><circle cx="1050.0" cy="312.7" r="2.1" fill="#d4d4d8" opacity="0.90"/><circle cx="1093.6" cy="312.7" r="2.1" fill="#d4d4d8" opacity="0.89"/><circle cx="1135.9" cy="312.7" r="2.1" fill="#d4d4d8" opacity="0.87"/><circle cx="1267.5" cy="312.7" r="2.1" fill="#d4d4d8" opacity="0.62"/><circle cx="1286.0" cy="312.7" r="2.1" fill="#d4d4d8" opacity="0.54"/><circle cx="1297.3" cy="312.7" r="2.1" fill="#d4d4d8" opacity="0.45"/><circle cx="1301.1" cy="312.7" r="2.1" fill="#d4d4d8" opacity="0.35"/><circle cx="1297.3" cy="312.7" r="2.1" fill="#d4d4d8" opacity="0.35"/><circle cx="1286.0" cy="312.7" r="2.1" fill="#d4d4d8" opacity="0.35"/><circle cx="1267.5" cy="312.7" r="2.1" fill="#d4d4d8" opacity="0.35"/><circle cx="1175.6" cy="312.7" r="2.1" fill="#d4d4d8" opacity="0.35"/><circle cx="1135.9" cy="312.7" r="2.1" fill="#d4d4d8" opacity="0.35"/><circle cx="1050.0" cy="312.7" r="2.1" fill="#d4d4d8" opacity="0.35"/><circle cx="1006.4" cy="312.7" r="2.1" fill="#d4d4d8" opacity="0.35"/><circle cx="964.1" cy="312.7" r="2.1" fill="#d4d4d8" opacity="0.35"/><circle cx="924.4" cy="312.7" r="2.1" fill="#d4d4d8" opacity="0.35"/><circle cx="888.6" cy="312.7" r="2.1" fill="#d4d4d8" opacity="0.35"/><circle cx="857.6" cy="312.7" r="2.1" fill="#d4d4d8" opacity="0.35"/><circle cx="832.5" cy="312.7" r="2.1" fill="#d4d4d8" opacity="0.35"/><circle cx="802.7" cy="312.7" r="2.1" fill="#d4d4d8" opacity="0.35"/><circle cx="802.7" cy="312.7" r="2.1" fill="#d4d4d8" opacity="0.45"/><circle cx="832.5" cy="312.7" r="2.1" fill="#d4d4d8" opacity="0.62"/><circle cx="888.6" cy="312.7" r="2.1" fill="#d4d4d8" opacity="0.77"/><circle cx="924.4" cy="312.7" r="2.1" fill="#d4d4d8" opacity="0.83"/><circle cx="964.1" cy="312.7" r="2.1" fill="#d4d4d8" opacity="0.87"/><circle cx="1050.0" cy="270.1" r="2.1" fill="#d4d4d8" opacity="0.90"/><circle cx="1090.9" cy="270.1" r="2.1" fill="#d4d4d8" opacity="0.89"/><circle cx="1130.6" cy="270.1" r="2.1" fill="#d4d4d8" opacity="0.87"/><circle cx="1167.8" cy="270.1" r="2.1" fill="#d4d4d8" opacity="0.83"/><circle cx="1201.5" cy="270.1" r="2.1" fill="#d4d4d8" opacity="0.77"/><circle cx="1230.5" cy="270.1" r="2.1" fill="#d4d4d8" opacity="0.70"/><circle cx="1254.1" cy="270.1" r="2.1" fill="#d4d4d8" opacity="0.62"/><circle cx="1271.4" cy="270.1" r="2.1" fill="#d4d4d8" opacity="0.54"/><circle cx="1282.1" cy="270.1" r="2.1" fill="#d4d4d8" opacity="0.45"/><circle cx="1285.6" cy="270.1" r="2.1" fill="#d4d4d8" opacity="0.35"/><circle cx="1282.1" cy="270.1" r="2.1" fill="#d4d4d8" opacity="0.35"/><circle cx="1271.4" cy="270.1" r="2.1" fill="#d4d4d8" opacity="0.35"/><circle cx="1254.1" cy="270.1" r="2.1" fill="#d4d4d8" opacity="0.35"/><circle cx="1230.5" cy="270.1" r="2.1" fill="#d4d4d8" opacity="0.35"/><circle cx="1201.5" cy="270.1" r="2.1" fill="#d4d4d8" opacity="0.35"/><circle cx="1167.8" cy="270.1" r="2.1" fill="#d4d4d8" opacity="0.35"/><circle cx="1130.6" cy="270.1" r="2.1" fill="#d4d4d8" opacity="0.35"/><circle cx="1090.9" cy="270.1" r="2.1" fill="#d4d4d8" opacity="0.35"/><circle cx="1050.0" cy="270.1" r="2.1" fill="#d4d4d8" opacity="0.35"/><circle cx="1009.1" cy="270.1" r="2.1" fill="#d4d4d8" opacity="0.35"/><circle cx="969.4" cy="270.1" r="2.1" fill="#d4d4d8" opacity="0.35"/><circle cx="932.2" cy="270.1" r="2.1" fill="#d4d4d8" opacity="0.35"/><circle cx="869.5" cy="270.1" r="2.1" fill="#d4d4d8" opacity="0.35"/><circle cx="828.6" cy="270.1" r="2.1" fill="#d4d4d8" opacity="0.35"/><circle cx="817.9" cy="270.1" r="2.1" fill="#d4d4d8" opacity="0.35"/><circle cx="817.9" cy="270.1" r="2.1" fill="#d4d4d8" opacity="0.45"/><circle cx="828.6" cy="270.1" r="2.1" fill="#d4d4d8" opacity="0.54"/><circle cx="845.9" cy="270.1" r="2.1" fill="#d4d4d8" opacity="0.62"/><circle cx="898.5" cy="270.1" r="2.1" fill="#d4d4d8" opacity="0.77"/><circle cx="969.4" cy="270.1" r="2.1" fill="#d4d4d8" opacity="0.87"/><circle cx="1009.1" cy="270.1" r="2.1" fill="#d4d4d8" opacity="0.89"/><circle cx="1050.0" cy="230.9" r="2.1" fill="#d4d4d8" opacity="0.90"/><circle cx="1087.0" cy="230.9" r="2.1" fill="#d4d4d8" opacity="0.89"/><circle cx="1122.8" cy="230.9" r="2.1" fill="#d4d4d8" opacity="0.87"/><circle cx="1156.5" cy="230.9" r="2.1" fill="#d4d4d8" opacity="0.83"/><circle cx="1186.9" cy="230.9" r="2.1" fill="#d4d4d8" opacity="0.77"/><circle cx="1213.2" cy="230.9" r="2.1" fill="#d4d4d8" opacity="0.70"/><circle cx="1234.4" cy="230.9" r="2.1" fill="#d4d4d8" opacity="0.62"/><circle cx="1250.1" cy="230.9" r="2.1" fill="#d4d4d8" opacity="0.54"/><circle cx="1259.7" cy="230.9" r="2.1" fill="#d4d4d8" opacity="0.45"/><circle cx="1250.1" cy="230.9" r="2.1" fill="#d4d4d8" opacity="0.35"/><circle cx="1234.4" cy="230.9" r="2.1" fill="#d4d4d8" opacity="0.35"/><circle cx="1213.2" cy="230.9" r="2.1" fill="#d4d4d8" opacity="0.35"/><circle cx="1186.9" cy="230.9" r="2.1" fill="#d4d4d8" opacity="0.35"/><circle cx="1156.5" cy="230.9" r="2.1" fill="#d4d4d8" opacity="0.35"/><circle cx="1122.8" cy="230.9" r="2.1" fill="#d4d4d8" opacity="0.35"/><circle cx="1087.0" cy="230.9" r="2.1" fill="#d4d4d8" opacity="0.35"/><circle cx="1050.0" cy="230.9" r="2.1" fill="#d4d4d8" opacity="0.35"/><circle cx="943.5" cy="230.9" r="2.1" fill="#d4d4d8" opacity="0.35"/><circle cx="913.1" cy="230.9" r="2.1" fill="#d4d4d8" opacity="0.35"/><circle cx="865.6" cy="230.9" r="2.1" fill="#d4d4d8" opacity="0.35"/><circle cx="849.9" cy="230.9" r="2.1" fill="#d4d4d8" opacity="0.35"/><circle cx="840.3" cy="230.9" r="2.1" fill="#d4d4d8" opacity="0.35"/><circle cx="837.0" cy="230.9" r="2.1" fill="#d4d4d8" opacity="0.35"/><circle cx="840.3" cy="230.9" r="2.1" fill="#d4d4d8" opacity="0.45"/><circle cx="849.9" cy="230.9" r="2.1" fill="#d4d4d8" opacity="0.54"/><circle cx="865.6" cy="230.9" r="2.1" fill="#d4d4d8" opacity="0.62"/><circle cx="886.8" cy="230.9" r="2.1" fill="#d4d4d8" opacity="0.70"/><circle cx="913.1" cy="230.9" r="2.1" fill="#d4d4d8" opacity="0.77"/><circle cx="943.5" cy="230.9" r="2.1" fill="#d4d4d8" opacity="0.83"/><circle cx="977.2" cy="230.9" r="2.1" fill="#d4d4d8" opacity="0.87"/><circle cx="1013.0" cy="230.9" r="2.1" fill="#d4d4d8" opacity="0.89"/><circle cx="1050.0" cy="196.2" r="2.1" fill="#d4d4d8" opacity="0.90"/><circle cx="1081.9" cy="196.2" r="2.1" fill="#d4d4d8" opacity="0.89"/><circle cx="1112.9" cy="196.2" r="2.1" fill="#d4d4d8" opacity="0.87"/><circle cx="1141.9" cy="196.2" r="2.1" fill="#d4d4d8" opacity="0.83"/><circle cx="1168.2" cy="196.2" r="2.1" fill="#d4d4d8" opacity="0.77"/><circle cx="1190.8" cy="196.2" r="2.1" fill="#d4d4d8" opacity="0.70"/><circle cx="1209.2" cy="196.2" r="2.1" fill="#d4d4d8" opacity="0.62"/><circle cx="1222.8" cy="196.2" r="2.1" fill="#d4d4d8" opacity="0.54"/><circle cx="1231.1" cy="196.2" r="2.1" fill="#d4d4d8" opacity="0.45"/><circle cx="1231.1" cy="196.2" r="2.1" fill="#d4d4d8" opacity="0.35"/><circle cx="1222.8" cy="196.2" r="2.1" fill="#d4d4d8" opacity="0.35"/><circle cx="1190.8" cy="196.2" r="2.1" fill="#d4d4d8" opacity="0.35"/><circle cx="1168.2" cy="196.2" r="2.1" fill="#d4d4d8" opacity="0.35"/><circle cx="1141.9" cy="196.2" r="2.1" fill="#d4d4d8" opacity="0.35"/><circle cx="1112.9" cy="196.2" r="2.1" fill="#d4d4d8" opacity="0.35"/><circle cx="1018.1" cy="196.2" r="2.1" fill="#d4d4d8" opacity="0.35"/><circle cx="987.1" cy="196.2" r="2.1" fill="#d4d4d8" opacity="0.35"/><circle cx="931.8" cy="196.2" r="2.1" fill="#d4d4d8" opacity="0.35"/><circle cx="909.2" cy="196.2" r="2.1" fill="#d4d4d8" opacity="0.35"/><circle cx="890.8" cy="196.2" r="2.1" fill="#d4d4d8" opacity="0.35"/><circle cx="868.9" cy="196.2" r="2.1" fill="#d4d4d8" opacity="0.45"/><circle cx="890.8" cy="196.2" r="2.1" fill="#d4d4d8" opacity="0.62"/><circle cx="909.2" cy="196.2" r="2.1" fill="#d4d4d8" opacity="0.70"/><circle cx="931.8" cy="196.2" r="2.1" fill="#d4d4d8" opacity="0.77"/><circle cx="958.1" cy="196.2" r="2.1" fill="#d4d4d8" opacity="0.83"/><circle cx="987.1" cy="196.2" r="2.1" fill="#d4d4d8" opacity="0.87"/><circle cx="1018.1" cy="196.2" r="2.1" fill="#d4d4d8" opacity="0.89"/><circle cx="1050.0" cy="167.0" r="2.1" fill="#d4d4d8" opacity="0.90"/><circle cx="1101.0" cy="167.0" r="2.1" fill="#d4d4d8" opacity="0.87"/><circle cx="1124.6" cy="167.0" r="2.1" fill="#d4d4d8" opacity="0.83"/><circle cx="1145.9" cy="167.0" r="2.1" fill="#d4d4d8" opacity="0.77"/><circle cx="1164.2" cy="167.0" r="2.1" fill="#d4d4d8" opacity="0.70"/><circle cx="1179.2" cy="167.0" r="2.1" fill="#d4d4d8" opacity="0.62"/><circle cx="1190.1" cy="167.0" r="2.1" fill="#d4d4d8" opacity="0.54"/><circle cx="1199.1" cy="167.0" r="2.1" fill="#d4d4d8" opacity="0.35"/><circle cx="1196.9" cy="167.0" r="2.1" fill="#d4d4d8" opacity="0.35"/><circle cx="1190.1" cy="167.0" r="2.1" fill="#d4d4d8" opacity="0.35"/><circle cx="1179.2" cy="167.0" r="2.1" fill="#d4d4d8" opacity="0.35"/><circle cx="1164.2" cy="167.0" r="2.1" fill="#d4d4d8" opacity="0.35"/><circle cx="1145.9" cy="167.0" r="2.1" fill="#d4d4d8" opacity="0.35"/><circle cx="1124.6" cy="167.0" r="2.1" fill="#d4d4d8" opacity="0.35"/><circle cx="1101.0" cy="167.0" r="2.1" fill="#d4d4d8" opacity="0.35"/><circle cx="1075.9" cy="167.0" r="2.1" fill="#d4d4d8" opacity="0.35"/><circle cx="1050.0" cy="167.0" r="2.1" fill="#d4d4d8" opacity="0.35"/><circle cx="1024.1" cy="167.0" r="2.1" fill="#d4d4d8" opacity="0.35"/><circle cx="999.0" cy="167.0" r="2.1" fill="#d4d4d8" opacity="0.35"/><circle cx="954.1" cy="167.0" r="2.1" fill="#d4d4d8" opacity="0.35"/><circle cx="935.8" cy="167.0" r="2.1" fill="#d4d4d8" opacity="0.35"/><circle cx="920.8" cy="167.0" r="2.1" fill="#d4d4d8" opacity="0.35"/><circle cx="909.9" cy="167.0" r="2.1" fill="#d4d4d8" opacity="0.35"/><circle cx="903.1" cy="167.0" r="2.1" fill="#d4d4d8" opacity="0.35"/><circle cx="900.9" cy="167.0" r="2.1" fill="#d4d4d8" opacity="0.35"/><circle cx="903.1" cy="167.0" r="2.1" fill="#d4d4d8" opacity="0.45"/><circle cx="909.9" cy="167.0" r="2.1" fill="#d4d4d8" opacity="0.54"/><circle cx="920.8" cy="167.0" r="2.1" fill="#d4d4d8" opacity="0.62"/><circle cx="935.8" cy="167.0" r="2.1" fill="#d4d4d8" opacity="0.70"/><circle cx="954.1" cy="167.0" r="2.1" fill="#d4d4d8" opacity="0.77"/><circle cx="975.4" cy="167.0" r="2.1" fill="#d4d4d8" opacity="0.83"/><circle cx="999.0" cy="167.0" r="2.1" fill="#d4d4d8" opacity="0.87"/><circle cx="1024.1" cy="167.0" r="2.1" fill="#d4d4d8" opacity="0.89"/><circle cx="1050.0" cy="144.4" r="2.1" fill="#d4d4d8" opacity="0.90"/><circle cx="1069.1" cy="144.4" r="2.1" fill="#d4d4d8" opacity="0.89"/><circle cx="1087.6" cy="144.4" r="2.1" fill="#d4d4d8" opacity="0.87"/><circle cx="1104.9" cy="144.4" r="2.1" fill="#d4d4d8" opacity="0.83"/><circle cx="1120.6" cy="144.4" r="2.1" fill="#d4d4d8" opacity="0.77"/><circle cx="1134.2" cy="144.4" r="2.1" fill="#d4d4d8" opacity="0.70"/><circle cx="1145.2" cy="144.4" r="2.1" fill="#d4d4d8" opacity="0.62"/><circle cx="1153.3" cy="144.4" r="2.1" fill="#d4d4d8" opacity="0.54"/><circle cx="1158.2" cy="144.4" r="2.1" fill="#d4d4d8" opacity="0.45"/><circle cx="1159.9" cy="144.4" r="2.1" fill="#d4d4d8" opacity="0.35"/><circle cx="1153.3" cy="144.4" r="2.1" fill="#d4d4d8" opacity="0.35"/><circle cx="1120.6" cy="144.4" r="2.1" fill="#d4d4d8" opacity="0.35"/><circle cx="1104.9" cy="144.4" r="2.1" fill="#d4d4d8" opacity="0.35"/><circle cx="1050.0" cy="144.4" r="2.1" fill="#d4d4d8" opacity="0.35"/><circle cx="1030.9" cy="144.4" r="2.1" fill="#d4d4d8" opacity="0.35"/><circle cx="1012.4" cy="144.4" r="2.1" fill="#d4d4d8" opacity="0.35"/><circle cx="979.4" cy="144.4" r="2.1" fill="#d4d4d8" opacity="0.35"/><circle cx="965.8" cy="144.4" r="2.1" fill="#d4d4d8" opacity="0.35"/><circle cx="954.8" cy="144.4" r="2.1" fill="#d4d4d8" opacity="0.35"/><circle cx="946.7" cy="144.4" r="2.1" fill="#d4d4d8" opacity="0.35"/><circle cx="940.1" cy="144.4" r="2.1" fill="#d4d4d8" opacity="0.35"/><circle cx="946.7" cy="144.4" r="2.1" fill="#d4d4d8" opacity="0.54"/><circle cx="965.8" cy="144.4" r="2.1" fill="#d4d4d8" opacity="0.70"/><circle cx="979.4" cy="144.4" r="2.1" fill="#d4d4d8" opacity="0.77"/><circle cx="1012.4" cy="144.4" r="2.1" fill="#d4d4d8" opacity="0.87"/><circle cx="1030.9" cy="144.4" r="2.1" fill="#d4d4d8" opacity="0.89"/><circle cx="1050.0" cy="128.9" r="2.1" fill="#d4d4d8" opacity="0.90"/><circle cx="1061.7" cy="128.9" r="2.1" fill="#d4d4d8" opacity="0.89"/><circle cx="1073.0" cy="128.9" r="2.1" fill="#d4d4d8" opacity="0.87"/><circle cx="1083.6" cy="128.9" r="2.1" fill="#d4d4d8" opacity="0.83"/><circle cx="1093.3" cy="128.9" r="2.1" fill="#d4d4d8" opacity="0.77"/><circle cx="1101.5" cy="128.9" r="2.1" fill="#d4d4d8" opacity="0.70"/><circle cx="1108.3" cy="128.9" r="2.1" fill="#d4d4d8" opacity="0.62"/><circle cx="1116.3" cy="128.9" r="2.1" fill="#d4d4d8" opacity="0.45"/><circle cx="1117.3" cy="128.9" r="2.1" fill="#d4d4d8" opacity="0.35"/><circle cx="1113.2" cy="128.9" r="2.1" fill="#d4d4d8" opacity="0.35"/><circle cx="1101.5" cy="128.9" r="2.1" fill="#d4d4d8" opacity="0.35"/><circle cx="1083.6" cy="128.9" r="2.1" fill="#d4d4d8" opacity="0.35"/><circle cx="1073.0" cy="128.9" r="2.1" fill="#d4d4d8" opacity="0.35"/><circle cx="1061.7" cy="128.9" r="2.1" fill="#d4d4d8" opacity="0.35"/><circle cx="1038.3" cy="128.9" r="2.1" fill="#d4d4d8" opacity="0.35"/><circle cx="1027.0" cy="128.9" r="2.1" fill="#d4d4d8" opacity="0.35"/><circle cx="1016.4" cy="128.9" r="2.1" fill="#d4d4d8" opacity="0.35"/><circle cx="1006.7" cy="128.9" r="2.1" fill="#d4d4d8" opacity="0.35"/><circle cx="998.5" cy="128.9" r="2.1" fill="#d4d4d8" opacity="0.35"/><circle cx="991.7" cy="128.9" r="2.1" fill="#d4d4d8" opacity="0.35"/><circle cx="983.7" cy="128.9" r="2.1" fill="#d4d4d8" opacity="0.35"/><circle cx="983.7" cy="128.9" r="2.1" fill="#d4d4d8" opacity="0.45"/><circle cx="986.8" cy="128.9" r="2.1" fill="#d4d4d8" opacity="0.54"/><circle cx="991.7" cy="128.9" r="2.1" fill="#d4d4d8" opacity="0.62"/><circle cx="998.5" cy="128.9" r="2.1" fill="#d4d4d8" opacity="0.70"/><circle cx="1006.7" cy="128.9" r="2.1" fill="#d4d4d8" opacity="0.77"/>
      <animateTransform attributeName="transform" type="rotate" from="0 1050 380" to="360 1050 380" dur="26s" repeatCount="indefinite"/>
    </g>
    <path d="M 980 260 Q 1045.0 142.5 1110 205" fill="none" stroke="#ef4444" stroke-width="1.6" opacity=".48" stroke-dasharray="5 10"><animate attributeName="stroke-dashoffset" from="0" to="-30" dur="2.2s" repeatCount="indefinite"/></path><path d="M 1110 205 Q 1162.5 162.5 1215 300" fill="none" stroke="#ef4444" stroke-width="1.6" opacity=".48" stroke-dasharray="5 10"><animate attributeName="stroke-dashoffset" from="0" to="-30" dur="2.2s" repeatCount="indefinite"/></path><path d="M 1215 300 Q 1182.5 287.5 1150 455" fill="none" stroke="#ef4444" stroke-width="1.6" opacity=".48" stroke-dasharray="5 10"><animate attributeName="stroke-dashoffset" from="0" to="-30" dur="2.2s" repeatCount="indefinite"/></path><path d="M 1150 455 Q 1080.0 397.5 1010 520" fill="none" stroke="#ef4444" stroke-width="1.6" opacity=".48" stroke-dasharray="5 10"><animate attributeName="stroke-dashoffset" from="0" to="-30" dur="2.2s" repeatCount="indefinite"/></path><path d="M 1010 520 Q 970.0 365.0 930 390" fill="none" stroke="#ef4444" stroke-width="1.6" opacity=".48" stroke-dasharray="5 10"><animate attributeName="stroke-dashoffset" from="0" to="-30" dur="2.2s" repeatCount="indefinite"/></path><path d="M 930 390 Q 1095.0 315.0 1260 420" fill="none" stroke="#ef4444" stroke-width="1.6" opacity=".48" stroke-dasharray="5 10"><animate attributeName="stroke-dashoffset" from="0" to="-30" dur="2.2s" repeatCount="indefinite"/></path>
  </g>
  <g filter="url(#glow)">
    <circle cx="980" cy="260" r="4.5" fill="#ef4444"/><circle cx="1110" cy="205" r="4.5" fill="#ef4444"/><circle cx="1215" cy="300" r="4.5" fill="#ef4444"/><circle cx="1150" cy="455" r="4.5" fill="#ef4444"/><circle cx="1010" cy="520" r="4.5" fill="#ef4444"/><circle cx="930" cy="390" r="4.5" fill="#ef4444"/><circle cx="1260" cy="420" r="4.5" fill="#ef4444"/>
  </g>
  <ellipse cx="1050" cy="380" rx="305" ry="105" fill="none" stroke="#ef4444" stroke-width="1.2" opacity=".35" transform="rotate(-25 1050 380)"/>
</g>
<g font-family="ui-monospace,SFMono-Regular,Menlo,monospace">
  <circle cx="980" cy="700" r="4" fill="#ef4444"/>
  <text x="996" y="706" fill="#ef4444" font-size="14" letter-spacing="2.5">GLOBAL CONSENSUS NETWORK</text>
  <text x="1215" y="706" fill="#71717a" font-size="13" text-anchor="end">LOCKDOWN.DEV</text>
</g>
</svg>